<svg width="44" height="44" viewBox="0 0 44 44" fill="none" xmlns="http://www.w3.org/2000/svg">
<g clip-path="url(#clip0_130_4170)">
<path d="M12.2698 10.2031L12.2709 10.2031C13.7902 10.2007 15.2952 10.4977 16.6997 11.077C18.1043 11.6564 19.381 12.5067 20.4569 13.5795C21.5328 14.6523 22.3869 15.9266 22.9702 17.3295C23.5536 18.7324 23.8549 20.2365 23.8569 21.7558C23.8565 28.1327 18.6721 33.3067 12.2698 33.3067L12.2689 33.3067C10.7497 33.3087 9.24506 33.0115 7.84078 32.432C6.43649 31.8526 5.1601 31.0021 4.08447 29.9294C3.00884 28.8566 2.15504 27.5825 1.57182 26.1797C0.988657 24.7772 0.687438 23.2734 0.685358 21.7544C0.685606 15.3746 5.87001 10.2031 12.2698 10.2031ZM37.3178 21.7549C37.3178 24.847 36.649 27.6117 35.6015 29.5786C34.5381 31.5751 33.1857 32.5888 31.8683 32.5888C30.551 32.5888 29.1986 31.5746 28.1351 29.5776C27.0875 27.6104 26.4187 24.8456 26.4187 21.7549C26.4187 18.6628 27.0875 15.8981 28.1351 13.9312C29.1985 11.9347 30.5509 10.921 31.8683 10.921C33.1856 10.921 34.538 11.9352 35.6014 13.9322C36.6491 15.8995 37.3178 18.6642 37.3178 21.7549ZM42.8245 21.7549C42.8245 24.5723 42.5855 27.1031 42.2071 28.912C42.0168 29.8221 41.7986 30.5132 41.5775 30.96C41.4895 31.1378 41.4117 31.2548 41.3513 31.327C41.291 31.2547 41.2135 31.1377 41.1258 30.9601C40.9049 30.5129 40.6869 29.8215 40.4967 28.9112C40.1187 27.1018 39.8796 24.5709 39.8796 21.7549C39.8796 18.9375 40.1187 16.4067 40.497 14.5978C40.6874 13.6877 40.9056 12.9967 41.1267 12.5498C41.2147 12.372 41.2925 12.2549 41.3529 12.1827C41.4132 12.255 41.4907 12.3719 41.5784 12.5494C41.7992 12.9964 42.0173 13.6875 42.2075 14.5977C42.5855 16.4067 42.8245 18.9375 42.8245 21.7549ZM41.2704 31.4063C41.2704 31.4062 41.2709 31.4059 41.2719 31.4054L41.2704 31.4063ZM41.4308 31.4057C41.4318 31.4063 41.4323 31.4066 41.4323 31.4066L41.4308 31.4057ZM41.4338 12.1035C41.4338 12.1036 41.4333 12.1039 41.4323 12.1044L41.4338 12.1035ZM41.2735 12.1041C41.2725 12.1036 41.272 12.1033 41.272 12.1032L41.2735 12.1041Z" stroke="#71F26D" stroke-opacity="0.3" stroke-width="1.37072"/>
</g>
<defs>
<clipPath id="clip0_130_4170">
<rect width="43.5099" height="43.5099" fill="white"/>
</clipPath>
</defs>
</svg>
