<svg width="36" height="36" viewBox="0 0 36 36" fill="none" xmlns="http://www.w3.org/2000/svg">
<path d="M4.61639 0.937955H30.6617C32.6933 0.937955 34.3402 2.58487 34.3402 4.61645V30.659C34.3402 32.6906 32.6933 34.3375 30.6617 34.3375H4.61639C2.58481 34.3375 0.937894 32.6906 0.937894 30.659V4.61645C0.937894 2.58487 2.58481 0.937955 4.61639 0.937955Z" stroke="#71F26D" stroke-opacity="0.3" stroke-width="0.685358"/>
<path d="M14.5056 16.6138C14.5056 16.6138 17.3996 16.3988 17.3996 13.0061C17.3996 9.61327 15.0321 7.95685 12.0334 7.95685H2.1665V26.9189H12.0334C12.0334 26.9189 18.0555 27.1091 18.0555 21.3213C18.0555 21.3213 18.3201 16.6138 14.5056 16.6138ZM6.5129 11.3276H12.0251C12.0251 11.3276 13.3674 11.3276 13.3674 13.301C13.3674 15.2743 12.5791 15.561 11.6834 15.561H6.51566L6.5129 11.3276ZM11.7771 23.5482H6.51566V18.4825H12.0279C12.0279 18.4825 14.0261 18.4549 14.0261 21.087C14.0316 23.2781 12.5708 23.5262 11.7798 23.5482H11.7771ZM26.0896 12.7828C18.7969 12.7828 18.8052 20.0672 18.8052 20.0672C18.8052 20.0672 18.3036 27.3158 26.0896 27.3158C26.0896 27.3158 32.5775 27.6851 32.5775 22.2749H29.2426C29.2426 22.2749 29.3528 24.3144 26.2109 24.3144C26.2109 24.3144 22.8732 24.5376 22.8732 21.0071H32.6988C32.6988 21.0071 33.7654 12.7828 26.0896 12.7828ZM29.0552 18.4825H22.8264C22.8264 18.4825 23.2343 15.561 26.164 15.561C29.0938 15.561 29.0552 18.4825 29.0552 18.4825ZM22.0105 9.07583H29.8324V11.4103H22.0105V9.07583Z" fill="#71F26D" fill-opacity="0.3"/>
</svg>
