<svg width="42" height="42" viewBox="0 0 42 42" fill="none" xmlns="http://www.w3.org/2000/svg">
<path d="M20.8732 4.11511C25.0148 4.11511 28.793 5.61146 31.712 8.07286L27.7567 11.9725C25.864 10.4938 23.4759 9.60406 20.8732 9.60406C14.7403 9.60406 9.75131 14.5089 9.75131 20.5789C9.75131 26.6489 14.7403 31.5538 20.8732 31.5538C25.7103 31.5538 29.8185 28.5006 31.3485 24.2404L31.6778 23.3234H30.7035H21.5585V17.8344H35.8426V17.9056H36.5279H37.3583C37.5036 18.7769 37.582 19.6694 37.582 20.5789C37.582 29.6619 30.1098 37.0427 20.8732 37.0427C11.6366 37.0427 4.16436 29.6619 4.16436 20.5789C4.16436 11.4959 11.6366 4.11511 20.8732 4.11511Z" stroke="#71F26D" stroke-opacity="0.3" stroke-width="1.37072"/>
</svg>
