<svg width="36" height="36" viewBox="0 0 36 36" fill="none" xmlns="http://www.w3.org/2000/svg">
<g clip-path="url(#clip0_130_4191)">
<path d="M17.6392 35.237C7.91006 35.237 0 27.3407 0 17.6254C0 7.89628 7.91006 0 17.6392 0C27.3682 0 35.2783 7.89628 35.2783 17.6116C35.2783 27.3269 27.3682 35.237 17.6392 35.237ZM32.5084 20.0232C31.9985 19.8578 27.8506 18.6314 23.1238 19.3755C25.0944 24.7775 25.8937 29.1873 26.0453 30.0968C29.4353 27.823 31.8469 24.2125 32.5084 20.0232ZM23.5235 31.4886C23.303 30.1657 22.421 25.563 20.3126 20.0783C20.285 20.0921 20.2437 20.1059 20.2161 20.1059C11.7135 23.0687 8.66799 28.953 8.39238 29.5042C10.9418 31.4886 14.1527 32.6738 17.6392 32.6738C19.72 32.6876 21.7182 32.2604 23.5235 31.4886ZM6.44931 27.699C6.79383 27.1202 10.928 20.285 18.7003 17.7632C18.8932 17.6943 19.0999 17.6392 19.2928 17.584C18.9207 16.7296 18.5073 15.8752 18.0663 15.0346C10.5421 17.2809 3.23844 17.1844 2.57697 17.1706C2.57697 17.3222 2.56319 17.4738 2.56319 17.6254C2.57697 21.4977 4.03771 25.0255 6.44931 27.699ZM2.89392 14.5523C3.56917 14.5661 9.77044 14.5936 16.8261 12.7195C14.3318 8.28213 11.6308 4.56137 11.245 4.02393C7.01432 6.00834 3.87234 9.89446 2.89392 14.5523ZM14.1113 3.00417C14.5247 3.55539 17.2671 7.27615 19.7338 11.81C25.0944 9.798 27.3545 6.76627 27.6301 6.38041C24.9704 4.02393 21.4702 2.59075 17.6392 2.59075C16.4265 2.59075 15.2413 2.74234 14.1113 3.00417ZM29.2975 8.11677C28.9806 8.54396 26.4587 11.7824 20.8914 14.0562C21.2359 14.7728 21.5804 15.5032 21.8974 16.2335C22.0076 16.4954 22.1178 16.7572 22.2281 17.0052C27.2442 16.3713 32.219 17.3911 32.7151 17.4876C32.6738 13.946 31.406 10.68 29.2975 8.11677Z" fill="#71F26D" fill-opacity="0.3"/>
</g>
<defs>
<clipPath id="clip0_130_4191">
<rect width="35.2783" height="35.2783" fill="white"/>
</clipPath>
</defs>
</svg>
