<svg width="36" height="36" viewBox="0 0 36 36" fill="none" xmlns="http://www.w3.org/2000/svg">
<g clip-path="url(#clip0_130_4172)">
<path d="M34.9356 17.6391C34.9356 26.1338 28.8117 33.1984 20.7379 34.6586V23.0806H24.5053H24.7995L24.844 22.7899L25.6261 17.6911L25.6866 17.2965H25.2874H20.7379V14.3304C20.7379 13.6827 20.8971 13.0853 21.27 12.6541C21.6349 12.2322 22.2486 11.9184 23.2699 11.9184H25.4941H25.8368V11.5757V7.23481V6.94566L25.5517 6.89701L25.4941 7.23481L25.5517 6.897L25.5515 6.89698L25.5512 6.89691L25.5498 6.89669L25.545 6.89588L25.5269 6.89285L25.4576 6.88162C25.3974 6.87199 25.3096 6.85832 25.1984 6.84195C24.9761 6.80922 24.6599 6.76567 24.2829 6.72213C23.5302 6.63523 22.5288 6.54761 21.5455 6.54761C19.4618 6.54761 17.7011 7.18036 16.461 8.42166C15.2205 9.6633 14.5404 11.4742 14.5404 13.753V17.2965H10.4043H10.0617V17.6391V22.738V23.0806H10.4043H14.5404V34.6586C6.46665 33.1984 0.342679 26.1336 0.342679 17.6391C0.342679 8.0865 8.08663 0.342679 17.6392 0.342679C27.1917 0.342679 34.9356 8.08663 34.9356 17.6391Z" stroke="#71F26D" stroke-opacity="0.3" stroke-width="0.685358"/>
<path d="M24.5053 22.738L25.2873 17.6391H20.3952V14.3304C20.3952 12.9353 21.0786 11.5757 23.2699 11.5757H25.494V7.2348C25.494 7.2348 23.4755 6.89029 21.5455 6.89029C17.5165 6.89029 14.883 9.33221 14.883 13.753V17.6391H10.4043V22.738H14.883V35.064C15.7947 35.2069 16.7162 35.2785 17.6391 35.2783C18.562 35.2786 19.4835 35.2069 20.3952 35.064V22.738H24.5053Z" fill="#71F26D" fill-opacity="0.3"/>
</g>
<defs>
<clipPath id="clip0_130_4172">
<rect width="35.2783" height="35.2783" fill="white"/>
</clipPath>
</defs>
</svg>
