<svg width="36" height="36" viewBox="0 0 36 36" fill="none" xmlns="http://www.w3.org/2000/svg">
<g clip-path="url(#clip0_130_4179)">
<path d="M8.26835 0.342679H27.0099C31.3872 0.342679 34.9356 3.89112 34.9356 8.26835V27.0099C34.9356 31.3872 31.3872 34.9356 27.0099 34.9356H8.26835C3.89112 34.9356 0.342679 31.3872 0.342679 27.0099V8.26835C0.342679 3.89112 3.89112 0.342679 8.26835 0.342679Z" stroke="#71F26D" stroke-opacity="0.3" stroke-width="0.685358"/>
<path d="M27.5024 12.597C27.5175 12.8157 27.5175 13.0344 27.5175 13.2551C27.5175 19.9796 22.3983 27.7351 13.0376 27.7351V27.7309C10.2723 27.7349 7.56422 26.9429 5.23682 25.4496C5.63893 25.4979 6.04298 25.522 6.44813 25.523C8.74007 25.5248 10.9661 24.7561 12.7685 23.3403C11.7065 23.3202 10.6774 22.9688 9.82498 22.3352C8.97256 21.7015 8.33945 20.8174 8.01416 19.8063C8.7766 19.9533 9.56262 19.9233 10.3117 19.7186C7.93753 19.2389 6.22943 17.153 6.22943 14.7303V14.6658C6.93719 15.06 7.72928 15.2785 8.53906 15.3028C6.30302 13.8083 5.61372 10.8335 6.96394 8.50757C8.24158 10.0798 9.83566 11.3657 11.6427 12.2817C13.4496 13.1977 15.4291 13.7233 17.4525 13.8244C17.2507 12.956 17.2805 12.0499 17.5389 11.1966C17.7972 10.3433 18.2751 9.57283 18.9247 8.96219C20.9744 7.03539 24.1981 7.1342 26.1249 9.18282C27.2645 8.95781 28.3574 8.54001 29.3566 7.94739C28.9766 9.12572 28.1816 10.1259 27.1194 10.7619C28.1282 10.6431 29.1134 10.373 30.0419 9.96087C29.3589 10.9837 28.4989 11.8763 27.5024 12.597Z" fill="#71F26D" fill-opacity="0.3"/>
</g>
<defs>
<clipPath id="clip0_130_4179">
<rect width="35.2783" height="35.2783" fill="white"/>
</clipPath>
</defs>
</svg>
