<svg width="36" height="36" viewBox="0 0 36 36" fill="none" xmlns="http://www.w3.org/2000/svg">
<g clip-path="url(#clip0_130_4183)">
<path d="M8.26835 0.342679H27.0099C31.3872 0.342679 34.9356 3.89112 34.9356 8.26835V27.0099C34.9356 31.3872 31.3872 34.9356 27.0099 34.9356H8.26835C3.89112 34.9356 0.342679 31.3872 0.342679 27.0099V8.26835C0.342679 3.89112 3.89112 0.342679 8.26835 0.342679Z" stroke="#71F26D" stroke-opacity="0.3" stroke-width="0.685358"/>
<path d="M17.6402 3.85855C13.8977 3.85855 13.4279 3.87495 11.9581 3.94179C10.491 4.00904 9.48956 4.24124 8.61339 4.58203C7.7069 4.93399 6.93808 5.40487 6.17216 6.17107C5.40554 6.93713 4.93466 7.70595 4.5816 8.61203C4.23985 9.48847 4.00737 10.4903 3.94136 11.9567C3.87562 13.4267 3.8584 13.8966 3.8584 17.6393C3.8584 21.3819 3.87494 21.8502 3.94163 23.32C4.00916 24.7871 4.24136 25.7886 4.58188 26.6647C4.93411 27.5712 5.40499 28.34 6.17119 29.106C6.93698 29.8726 7.7058 30.3446 8.6116 30.6965C9.48846 31.0373 10.49 31.2695 11.9568 31.3368C13.4268 31.4036 13.8962 31.42 17.6386 31.42C21.3815 31.42 21.8498 31.4036 23.3196 31.3368C24.7867 31.2695 25.7892 31.0373 26.6661 30.6965C27.5722 30.3446 28.3399 29.8726 29.1055 29.106C29.8721 28.34 30.3429 27.5712 30.6961 26.6651C31.0348 25.7886 31.2674 24.7869 31.3363 23.3203C31.4023 21.8505 31.4196 21.3819 31.4196 17.6393C31.4196 13.8966 31.4023 13.427 31.3363 11.957C31.2674 10.4899 31.0348 9.48861 30.6961 8.61244C30.3429 7.70595 29.8721 6.93713 29.1055 6.17107C28.3391 5.40459 27.5724 4.93371 26.6653 4.58217C25.7868 4.24124 24.7848 4.0089 23.3177 3.94179C21.8477 3.87495 21.3797 3.85855 17.636 3.85855H17.6402ZM16.404 6.34195C16.7709 6.3414 17.1804 6.34195 17.6402 6.34195C21.3198 6.34195 21.7558 6.35518 23.2088 6.42119C24.5524 6.48265 25.2817 6.70714 25.7675 6.89579C26.4106 7.1455 26.8691 7.44412 27.3511 7.92658C27.8334 8.4089 28.1319 8.86821 28.3823 9.51135C28.571 9.99642 28.7957 10.7257 28.8569 12.0693C28.9229 13.522 28.9373 13.9583 28.9373 17.6361C28.9373 21.3139 28.9229 21.7503 28.8569 23.2029C28.7955 24.5465 28.571 25.2758 28.3823 25.761C28.1326 26.4041 27.8334 26.8621 27.3511 27.3441C26.8688 27.8264 26.4109 28.1249 25.7675 28.3748C25.2822 28.5642 24.5524 28.7882 23.2088 28.8496C21.7561 28.9157 21.3198 28.93 17.6402 28.93C13.9605 28.93 13.5244 28.9157 12.0718 28.8496C10.7282 28.7876 9.99889 28.5631 9.51271 28.3745C8.86971 28.1246 8.41026 27.8262 7.92794 27.3438C7.44562 26.8615 7.14714 26.4033 6.89674 25.7599C6.70809 25.2747 6.48332 24.5454 6.42214 23.2018C6.35613 21.7491 6.3429 21.3128 6.3429 17.6327C6.3429 13.9527 6.35613 13.5186 6.42214 12.0659C6.4836 10.7222 6.70809 9.99298 6.89674 9.50721C7.14658 8.86407 7.44562 8.40477 7.92808 7.92245C8.4104 7.44013 8.86971 7.1415 9.51285 6.89124C9.99861 6.70176 10.7282 6.47783 12.0718 6.41609C13.343 6.35862 13.8357 6.3414 16.404 6.33851V6.34195ZM24.9963 8.63008C24.0833 8.63008 23.3426 9.3701 23.3426 10.2832C23.3426 11.1962 24.0833 11.9369 24.9963 11.9369C25.9093 11.9369 26.65 11.1962 26.65 10.2832C26.65 9.37023 25.9093 8.62953 24.9963 8.62953V8.63008ZM17.6402 10.5623C13.7321 10.5623 10.5633 13.731 10.5633 17.6393C10.5633 21.5476 13.7321 24.7148 17.6402 24.7148C21.5485 24.7148 24.7161 21.5476 24.7161 17.6393C24.7161 13.7311 21.5483 10.5623 17.6399 10.5623H17.6402ZM17.6402 13.0457C20.1771 13.0457 22.2338 15.1021 22.2338 17.6393C22.2338 20.1761 20.1771 22.2329 17.6402 22.2329C15.1032 22.2329 13.0467 20.1761 13.0467 17.6393C13.0467 15.1021 15.1032 13.0457 17.6402 13.0457Z" fill="#71F26D" fill-opacity="0.3"/>
</g>
<defs>
<clipPath id="clip0_130_4183">
<rect width="35.2783" height="35.2783" fill="white"/>
</clipPath>
</defs>
</svg>
