<svg width="41" height="36" viewBox="0 0 41 36" fill="none" xmlns="http://www.w3.org/2000/svg">
<path d="M17.5153 9.68896L17.5151 9.68883C17.2196 9.50529 16.8804 9.40389 16.5327 9.39482C16.185 9.38575 15.841 9.46931 15.5363 9.63714C15.2316 9.80498 14.9771 10.0511 14.7996 10.3505C14.6222 10.6499 14.5284 10.9914 14.5284 11.3395V24.3167C14.5284 24.3168 14.5284 24.3168 14.5284 24.3168C14.5284 24.6692 14.6244 25.0148 14.8061 25.3167C14.9877 25.6187 15.2479 25.8655 15.5586 26.0314C15.8693 26.1973 16.2191 26.2763 16.5709 26.2603C16.9227 26.2443 17.2638 26.1338 17.5581 25.9402L17.5582 25.9401L27.7007 19.265L27.7016 19.2644C27.9734 19.0849 28.196 18.8403 28.3488 18.5526C28.5016 18.2648 28.5796 17.9433 28.5753 17.6175C28.571 17.2917 28.4846 16.9724 28.3243 16.6888C28.164 16.4052 27.935 16.1665 27.6586 15.9942L27.6579 15.9937L17.5153 9.68896ZM2.33978 2.33127C3.39973 1.2779 4.83824 0.685358 6.33907 0.685358H34.231C35.7318 0.685358 37.1703 1.2779 38.2303 2.33127C39.2901 3.38449 39.8847 4.81206 39.8847 6.2997V28.9786C39.8847 30.4662 39.2901 31.8938 38.2303 32.947C37.1703 34.0004 35.7318 34.5929 34.231 34.5929H6.33907C4.83824 34.5929 3.39973 34.0004 2.33978 32.947C1.27997 31.8938 0.685358 30.4662 0.685358 28.9786V6.2997C0.685358 4.81206 1.27997 3.38449 2.33978 2.33127Z" stroke="#71F26D" stroke-opacity="0.3" stroke-width="1.37072"/>
</svg>
